<svg xmlns="http://www.w3.org/2000/svg" width="800" height="360" viewBox="0 0 800 360" fill="none" aria-hidden="true">
  <rect width="800" height="360" fill="#020617"/>
  <rect x="140" y="56" width="520" height="248" rx="16" fill="#0c1222" stroke="#1e3a2f" stroke-width="1"/>
  <rect x="140" y="56" width="520" height="40" rx="16" fill="#0f172a"/>
  <rect x="156" y="68" width="12" height="12" rx="2" fill="#64748b"/>
  <rect x="176" y="68" width="12" height="12" rx="2" fill="#64748b" opacity="0.7"/>
  <rect x="196" y="68" width="12" height="12" rx="2" fill="#64748b" opacity="0.5"/>
  <text x="228" y="79" fill="#64748b" font-family="ui-monospace,monospace" font-size="13">solution.ts - Intervexa</text>
  <text x="172" y="132" fill="#c084fc" font-family="ui-monospace,monospace" font-size="15" font-weight="600">function</text>
  <text x="262" y="132" fill="#67e8f9" font-family="ui-monospace,monospace" font-size="15" font-weight="600"> solve</text>
  <text x="334" y="132" fill="#94a3b8" font-family="ui-monospace,monospace" font-size="15">() {</text>
  <rect x="172" y="152" width="240" height="10" rx="2" fill="#334155" opacity="0.6"/>
  <rect x="172" y="174" width="180" height="10" rx="2" fill="#334155" opacity="0.45"/>
  <rect x="172" y="196" width="200" height="10" rx="2" fill="#334155" opacity="0.35"/>
  <rect x="580" y="248" width="64" height="40" rx="8" fill="#064e3b" stroke="#34d399" stroke-opacity="0.5"/>
  <text x="598" y="274" fill="#6ee7b7" font-family="ui-monospace,monospace" font-size="12" font-weight="700">RUN</text>
  <text x="448" y="274" fill="#fbbf24" font-family="ui-monospace,monospace" font-size="14" font-weight="600">42:00</text>
</svg>
